HIERARCHY
ROOT hips
{
	OFFSET -0.003675 0.299928 -0.021708
	CHANNELS 6 Xposition Yposition Zposition Xrotation Yrotation Zrotation
	JOINT LowerBack
	{
		OFFSET 0.000919 0.177588 0.009275
		CHANNELS 3 Xrotation Yrotation Zrotation
		JOINT spine
		{
			OFFSET 0.000919 0.177588 0.009275
			CHANNELS 3 Xrotation Yrotation Zrotation
			JOINT chest
			{
				OFFSET 0.000456 0.100015 0.004638
				CHANNELS 3 Xrotation Yrotation Zrotation
				JOINT neck
				{
					OFFSET 0.000456 0.100015 0.004638
					CHANNELS 3 Xrotation Yrotation Zrotation
					JOINT head
					{
						OFFSET 0.000924 0.155147 0.009274
						CHANNELS 6 Xposition Yposition Zposition Xrotation Yrotation Zrotation
						End Site
						{
							OFFSET 0.000000 0.153400 0.000000
						}
					}
				}
				JOINT shoulder.L
				{
					OFFSET 0.019937 0.078966 0.057518
					CHANNELS 6 Xposition Yposition Zposition Yrotation Xrotation Zrotation
					JOINT upper_arm.L
					{
						OFFSET 0.177024 -0.020465 -0.095062
						CHANNELS 6 Xposition Yposition Zposition Xrotation Yrotation Zrotation
						JOINT forearm.L
						{
							OFFSET 0.247100 -0.135500 -0.061800
							CHANNELS 3 Xrotation Yrotation Zrotation
							JOINT hand.L
							{
								OFFSET 0.217000 -0.143000 0.039300
								CHANNELS 3 Xrotation Yrotation Zrotation
								JOINT palm.01.L
								{
									OFFSET 0.021770 -0.038291 0.012954
									CHANNELS 6 Xposition Yposition Zposition Yrotation Xrotation Zrotation
									JOINT f_index.01.L
									{
										OFFSET 0.053215 -0.044137 0.008236
										CHANNELS 3 Xrotation Yrotation Zrotation
										JOINT f_index.02.L
										{
											OFFSET 0.036108 -0.024723 -0.010656
											CHANNELS 3 Xrotation Yrotation Zrotation
											JOINT f_index.03.L
											{
												OFFSET 0.021342 -0.014948 -0.010846
												CHANNELS 3 Xrotation Yrotation Zrotation
												End Site
												{
													OFFSET 0.015600 -0.009860 -0.013421
												}
											}
										}
									}
									JOINT thumb.01.L
									{
										OFFSET -0.009090 -0.002348 -0.024223
										CHANNELS 6 Xposition Yposition Zposition Xrotation Yrotation Zrotation
										JOINT thumb.02.L
										{
											OFFSET 0.019713 -0.035076 -0.011120
											CHANNELS 3 Xrotation Yrotation Zrotation
											JOINT thumb.03.L
											{
												OFFSET 0.024877 -0.021748 -0.005176
												CHANNELS 3 Xrotation Yrotation Zrotation
												End Site
												{
													OFFSET 0.016125 -0.013029 -0.001569
												}
											}
										}
									}
								}
								JOINT palm.02.L
								{
									OFFSET 0.032823 -0.025104 0.012281
									CHANNELS 6 Xposition Yposition Zposition Yrotation Xrotation Zrotation
									JOINT f_middle.01.L
									{
										OFFSET 0.055723 -0.038469 0.008037
										CHANNELS 3 Xrotation Yrotation Zrotation
										JOINT f_middle.02.L
										{
											OFFSET 0.038167 -0.027473 -0.015582
											CHANNELS 3 Xrotation Yrotation Zrotation
											JOINT f_middle.03.L
											{
												OFFSET 0.021707 -0.016587 -0.017037
												CHANNELS 3 Xrotation Yrotation Zrotation
												End Site
												{
													OFFSET 0.014112 -0.010584 -0.014294
												}
											}
										}
									}
								}
								JOINT palm.03.L
								{
									OFFSET 0.039230 -0.011402 0.008390
									CHANNELS 6 Xposition Yposition Zposition Yrotation Xrotation Zrotation
									JOINT f_ring.01.L
									{
										OFFSET 0.061796 -0.031470 0.007910
										CHANNELS 3 Xrotation Yrotation Zrotation
										JOINT f_ring.02.L
										{
											OFFSET 0.033092 -0.023401 -0.019127
											CHANNELS 3 Xrotation Yrotation Zrotation
											JOINT f_ring.03.L
											{
												OFFSET 0.021392 -0.015362 -0.017824
												CHANNELS 3 Xrotation Yrotation Zrotation
												End Site
												{
													OFFSET 0.008670 -0.007297 -0.014686
												}
											}
										}
									}
								}
								JOINT palm.04.L
								{
									OFFSET 0.043417 0.002450 0.002889
									CHANNELS 6 Xposition Yposition Zposition Yrotation Xrotation Zrotation
									JOINT f_pinky.01.L
									{
										OFFSET 0.069986 -0.026156 0.003627
										CHANNELS 3 Xrotation Yrotation Zrotation
										JOINT f_pinky.02.L
										{
											OFFSET 0.018520 -0.012813 -0.016429
											CHANNELS 3 Xrotation Yrotation Zrotation
											JOINT f_pinky.03.L
											{
												OFFSET 0.013822 -0.009796 -0.014947
												CHANNELS 3 Xrotation Yrotation Zrotation
												End Site
												{
													OFFSET 0.007238 -0.006103 -0.011657
												}
											}
										}
									}
								}
							}
						}
					}
				}
				JOINT shoulder.R
				{
					OFFSET -0.016662 0.078957 0.057696
					CHANNELS 6 Xposition Yposition Zposition Yrotation Xrotation Zrotation
					JOINT upper_arm.R
					{
						OFFSET -0.176972 -0.020537 -0.095144
						CHANNELS 6 Xposition Yposition Zposition Xrotation Yrotation Zrotation
						JOINT forearm.R
						{
							OFFSET -0.247100 -0.135500 -0.061800
							CHANNELS 3 Xrotation Yrotation Zrotation
							JOINT hand.R
							{
								OFFSET -0.217000 -0.143000 0.039300
								CHANNELS 3 Xrotation Yrotation Zrotation
								JOINT palm.01.R
								{
									OFFSET -0.021773 -0.038278 0.012988
									CHANNELS 6 Xposition Yposition Zposition Yrotation Xrotation Zrotation
									JOINT f_index.01.R
									{
										OFFSET -0.053212 -0.044139 0.008249
										CHANNELS 3 Xrotation Yrotation Zrotation
										JOINT f_index.02.R
										{
											OFFSET -0.036049 -0.024835 -0.010634
											CHANNELS 3 Xrotation Yrotation Zrotation
											JOINT f_index.03.R
											{
												OFFSET -0.021371 -0.014881 -0.010866
												CHANNELS 3 Xrotation Yrotation Zrotation
												End Site
												{
													OFFSET -0.015584 -0.009883 -0.013422
												}
											}
										}
									}
									JOINT thumb.01.R
									{
										OFFSET 0.009113 -0.002381 -0.024211
										CHANNELS 6 Xposition Yposition Zposition Xrotation Yrotation Zrotation
										JOINT thumb.02.R
										{
											OFFSET -0.019694 -0.035097 -0.011088
											CHANNELS 3 Xrotation Yrotation Zrotation
											JOINT thumb.03.R
											{
												OFFSET -0.024867 -0.021762 -0.005168
												CHANNELS 3 Xrotation Yrotation Zrotation
												End Site
												{
													OFFSET -0.016120 -0.013036 -0.001565
												}
											}
										}
									}
								}
								JOINT palm.02.R
								{
									OFFSET -0.032828 -0.025095 0.012286
									CHANNELS 6 Xposition Yposition Zposition Yrotation Xrotation Zrotation
									JOINT f_middle.01.R
									{
										OFFSET -0.055721 -0.038472 0.008040
										CHANNELS 3 Xrotation Yrotation Zrotation
										JOINT f_middle.02.R
										{
											OFFSET -0.038101 -0.027593 -0.015557
											CHANNELS 3 Xrotation Yrotation Zrotation
											JOINT f_middle.03.R
											{
												OFFSET -0.021730 -0.016530 -0.017054
												CHANNELS 3 Xrotation Yrotation Zrotation
												End Site
												{
													OFFSET -0.014096 -0.010608 -0.014293
												}
											}
										}
									}
								}
								JOINT palm.03.R
								{
									OFFSET -0.039192 -0.011488 0.008390
									CHANNELS 6 Xposition Yposition Zposition Yrotation Xrotation Zrotation
									JOINT f_ring.01.R
									{
										OFFSET -0.061839 -0.031387 0.007876
										CHANNELS 3 Xrotation Yrotation Zrotation
										JOINT f_ring.02.R
										{
											OFFSET -0.033068 -0.023437 -0.019125
											CHANNELS 3 Xrotation Yrotation Zrotation
											JOINT f_ring.03.R
											{
												OFFSET -0.021371 -0.015393 -0.017822
												CHANNELS 3 Xrotation Yrotation Zrotation
												End Site
												{
													OFFSET -0.008654 -0.007321 -0.014684
												}
											}
										}
									}
								}
								JOINT palm.04.R
								{
									OFFSET -0.043421 0.002443 0.002845
									CHANNELS 6 Xposition Yposition Zposition Yrotation Xrotation Zrotation
									JOINT f_pinky.01.R
									{
										OFFSET -0.069983 -0.026169 0.003599
										CHANNELS 3 Xrotation Yrotation Zrotation
										JOINT f_pinky.02.R
										{
											OFFSET -0.018501 -0.012842 -0.016428
											CHANNELS 3 Xrotation Yrotation Zrotation
											JOINT f_pinky.03.R
											{
												OFFSET -0.013806 -0.009821 -0.014946
												CHANNELS 3 Xrotation Yrotation Zrotation
												End Site
												{
													OFFSET -0.007226 -0.006121 -0.011655
												}
											}
										}
									}
								}
							}
						}
					}
				}
			}
		}
	}
	JOINT pelvis.L
	{
		OFFSET 0.000000 0.000000 0.000000
		CHANNELS 6 Xposition Yposition Zposition Xrotation Yrotation Zrotation
		JOINT thigh.L
		{
			OFFSET 0.101675 0.001054 -0.000000
			CHANNELS 3 Xrotation Yrotation Zrotation
			JOINT shin.L
			{
				OFFSET 0.000000 -0.534800 0.041000
				CHANNELS 3 Xrotation Yrotation Zrotation
				JOINT foot.L
				{
					OFFSET 0.000000 -0.452000 -0.044800
					CHANNELS 3 Xrotation Yrotation Zrotation
					JOINT toe.L
					{
						OFFSET -0.000000 -0.068500 0.109600
						CHANNELS 3 Xrotation Yrotation Zrotation
						End Site
						{
							OFFSET -0.000000 0.000000 0.067200
						}
					}
				}
				JOINT heel.L
				{
					OFFSET 0.000000 -0.452000 -0.044800
					CHANNELS 3 Xrotation Yrotation Zrotation
					JOINT heel.02.L
					{
						OFFSET -0.038000 -0.085200 0.016200
						CHANNELS 6 Xposition Yposition Zposition Xrotation Yrotation Zrotation
						End Site
						{
							OFFSET 0.080000 -0.000000 0.000000
						}
					}
				}
			}
		}
	}
	JOINT pelvis.R
	{
		OFFSET 0.000000 0.000000 0.000000
		CHANNELS 6 Xposition Yposition Zposition Xrotation Yrotation Zrotation
		JOINT thigh.R
		{
			OFFSET -0.094325 0.001054 0.000000
			CHANNELS 3 Xrotation Yrotation Zrotation
			JOINT shin.R
			{
				OFFSET 0.000000 -0.534800 0.041000
				CHANNELS 3 Xrotation Yrotation Zrotation
				JOINT foot.R
				{
					OFFSET 0.000000 -0.452000 -0.044800
					CHANNELS 3 Xrotation Yrotation Zrotation
					JOINT toe.R
					{
						OFFSET -0.000000 -0.068500 0.109600
						CHANNELS 3 Xrotation Yrotation Zrotation
						End Site
						{
							OFFSET -0.000000 0.000000 0.067200
						}
					}
				}
				JOINT heel.R
				{
					OFFSET 0.000000 -0.452000 -0.044800
					CHANNELS 3 Xrotation Yrotation Zrotation
					JOINT heel.02.R
					{
						OFFSET 0.038000 -0.085200 0.016200
						CHANNELS 6 Xposition Yposition Zposition Xrotation Yrotation Zrotation
						End Site
						{
							OFFSET -0.080000 0.000000 -0.000000
						}
					}
				}
			}
		}
	}
}
MOTION
Frames: 4
Frame Time: 0.041667
-0.012783 0.223507 0.000462 -61.406392 2.689399 104.858027 -0.000001 0.000002 -0.000000 -0.000001 0.000000 0.000000 0.000000 -0.000003 0.000003 0.000001 -0.000003 0.000001 0.000924 0.155148 0.009274 -16.258774 0.051553 -15.063043 0.019937 0.078966 0.057518 -35.037149 2.979394 35.923981 0.177025 -0.020465 -0.095062 -19.217786 17.654927 -67.730389 152.847940 196.272261 -207.637355 -0.000001 -0.000000 0.000003 0.021770 -0.038291 0.012954 -0.000001 0.000004 -0.000002 0.000003 0.000003 -0.000000 -0.000001 -0.000000 0.000009 -0.000003 -0.000000 -0.000000 -0.009090 -0.002348 -0.024224 0.000004 0.000000 0.000000 -0.000003 -0.000004 0.000005 -0.000000 0.000003 0.000001 0.032823 -0.025104 0.012281 0.000002 0.000007 0.000007 0.000003 0.000001 -0.000008 -0.000004 -0.000002 0.000003 -0.000003 -0.000003 0.000003 0.039230 -0.011402 0.008390 0.000001 0.000003 0.000006 0.000000 0.000003 -0.000002 -0.000005 0.000002 0.000005 0.000001 -0.000001 0.000005 0.043417 0.002450 0.002889 -0.000003 0.000006 -0.000002 0.000003 -0.000004 0.000001 0.000004 0.000004 -0.000003 0.000000 0.000000 0.000003 -0.016662 0.078956 0.057696 -21.233545 5.275911 -28.717633 -0.176972 -0.020537 -0.095144 -40.203883 -8.638139 52.389279 -205.581044 -188.041501 -128.136398 -0.000001 0.000001 0.000002 -0.021773 -0.038278 0.012988 0.000001 -0.000003 -0.000007 0.000001 -0.000000 -0.000001 -0.000000 0.000003 -0.000002 -0.000001 0.000002 0.000001 0.009113 -0.002381 -0.024211 0.000000 -0.000000 0.000002 0.000001 -0.000002 0.000000 0.000003 0.000000 -0.000003 -0.032828 -0.025095 0.012286 0.000005 -0.000001 -0.000010 0.000005 0.000003 -0.000001 -0.000003 0.000001 -0.000003 0.000001 0.000005 -0.000009 -0.039192 -0.011488 0.008390 0.000002 -0.000002 -0.000002 0.000000 0.000003 -0.000003 -0.000000 -0.000006 -0.000004 -0.000003 0.000003 -0.000003 -0.043421 0.002443 0.002845 -0.000001 -0.000002 -0.000005 -0.000004 0.000006 -0.000004 0.000003 -0.000003 0.000000 -0.000000 0.000000 -0.000003 0.000000 0.000000 -0.000000 -2.013750 -0.896501 9.167583 15.342084 0.784721 9.679045 5.337560 -1.567949 16.033674 -0.000002 0.000002 0.000001 -0.000002 -0.000001 0.000001 0.000003 -0.000001 0.000002 -0.038000 -0.085200 0.016200 0.000003 0.000002 0.000000 0.000000 0.000000 -0.000000 -2.000597 -0.894233 10.401973 18.751750 1.105159 15.608432 13.747451 -1.505608 15.378226 0.000003 -0.000002 -0.000002 0.000001 -0.000003 0.000001 0.000007 -0.000002 -0.000002 0.038000 -0.085200 0.016200 0.000000 0.000003 0.000001 
-0.011469 0.223663 0.001949 -54.455691 5.326409 103.490159 -0.000001 0.000001 -0.000001 0.000000 0.000001 -0.000002 0.000000 0.000003 -0.000001 0.000001 0.000004 -0.000000 0.000924 0.155147 0.009274 -17.266817 0.058626 -12.780275 0.019937 0.078966 0.057518 -27.472068 1.626707 34.275484 0.177025 -0.020465 -0.095062 -17.403506 16.675244 -65.472438 152.504928 196.452797 -208.150001 0.000005 -0.000000 0.000005 0.021770 -0.038291 0.012954 -0.000003 -0.000000 -0.000002 -0.000001 0.000001 0.000001 0.000000 0.000001 0.000007 -0.000003 0.000003 -0.000000 -0.009090 -0.002348 -0.024224 -0.000002 0.000000 0.000003 0.000002 -0.000002 0.000005 -0.000004 -0.000002 -0.000002 0.032823 -0.025104 0.012281 -0.000000 -0.000000 0.000004 0.000000 0.000004 0.000002 -0.000002 -0.000004 -0.000002 -0.000002 0.000001 0.000001 0.039230 -0.011402 0.008390 -0.000001 -0.000000 0.000008 -0.000001 0.000002 -0.000002 -0.000004 0.000002 0.000003 -0.000001 0.000001 -0.000000 0.043417 0.002450 0.002889 -0.000000 -0.000000 -0.000003 -0.000003 -0.000001 -0.000000 -0.000003 -0.000001 -0.000001 -0.000000 -0.000001 -0.000007 -0.016662 0.078956 0.057696 -15.420180 4.272227 -30.593404 -0.176972 -0.020537 -0.095144 -41.733180 -10.363544 54.186517 -203.337395 -187.369096 -125.262937 0.000000 0.000000 0.000002 -0.021773 -0.038278 0.012988 -0.000005 -0.000003 -0.000002 -0.000002 -0.000002 -0.000001 -0.000002 0.000001 -0.000001 -0.000003 -0.000002 -0.000001 0.009113 -0.002381 -0.024212 0.000001 -0.000007 0.000001 -0.000002 0.000003 -0.000001 0.000002 0.000000 -0.000003 -0.032828 -0.025095 0.012286 -0.000003 -0.000001 -0.000003 -0.000000 0.000002 0.000001 0.000003 0.000001 -0.000002 -0.000003 0.000002 -0.000003 -0.039192 -0.011488 0.008390 -0.000003 -0.000000 -0.000000 -0.000003 0.000002 -0.000005 0.000002 -0.000001 -0.000004 -0.000002 0.000000 -0.000005 -0.043421 0.002443 0.002844 -0.000004 -0.000001 0.000004 -0.000001 0.000003 -0.000002 -0.000001 -0.000002 -0.000002 0.000002 -0.000003 -0.000006 -0.000000 0.000000 -0.000000 -2.014765 -0.885593 9.044516 20.849900 0.737341 8.738839 3.624658 -1.447054 14.767668 0.000002 0.000002 0.000001 0.000000 0.000000 0.000003 0.000000 0.000005 0.000002 -0.038000 -0.085200 0.016200 0.000002 0.000001 0.000003 -0.000000 0.000000 -0.000000 -2.001244 -0.883298 10.278906 21.640059 0.946843 13.673707 15.295334 -1.407792 14.356554 0.000000 -0.000000 -0.000000 0.000002 -0.000002 0.000000 0.000005 -0.000002 0.000000 0.038000 -0.085200 0.016200 -0.000000 -0.000004 -0.000003 
-0.012233 0.224705 0.001441 -58.731198 4.964847 104.864632 -0.000001 -0.000001 -0.000001 0.000001 -0.000002 -0.000000 -0.000000 -0.000002 0.000000 -0.000000 -0.000001 0.000001 0.000924 0.155148 0.009274 -18.767352 0.058021 -17.660270 0.019937 0.078966 0.057518 -31.297385 1.726837 33.731839 0.177025 -0.020465 -0.095062 -16.752357 16.953233 -66.134550 152.594581 200.094271 -201.183973 0.000001 0.000003 0.000002 0.021770 -0.038291 0.012954 -0.000001 -0.000003 0.000001 -0.000005 -0.000000 0.000001 0.000004 -0.000002 0.000004 0.000003 0.000007 0.000000 -0.009090 -0.002348 -0.024223 0.000002 0.000000 0.000001 -0.000006 0.000000 0.000006 -0.000004 -0.000000 0.000001 0.032823 -0.025104 0.012281 0.000001 -0.000002 -0.000001 0.000001 0.000002 0.000002 -0.000004 -0.000001 -0.000000 -0.000003 -0.000001 0.000006 0.039230 -0.011402 0.008390 0.000001 -0.000000 0.000008 0.000003 -0.000000 -0.000004 -0.000001 0.000006 0.000006 0.000003 -0.000001 0.000002 0.043417 0.002450 0.002889 -0.000000 -0.000002 -0.000002 0.000001 -0.000006 -0.000002 -0.000002 0.000002 -0.000001 -0.000003 -0.000003 0.000000 -0.016662 0.078957 0.057696 -17.917635 4.558590 -29.340471 -0.176972 -0.020537 -0.095144 -40.720884 -8.773103 52.426162 -207.411549 -187.429407 -124.977463 -0.000001 -0.000001 0.000002 -0.021773 -0.038278 0.012988 -0.000001 -0.000001 -0.000002 -0.000001 0.000005 -0.000001 -0.000001 -0.000000 -0.000001 -0.000000 -0.000000 -0.000003 0.009114 -0.002381 -0.024211 0.000001 0.000004 -0.000002 0.000001 -0.000004 -0.000002 0.000002 -0.000000 0.000003 -0.032828 -0.025095 0.012286 0.000002 0.000001 -0.000001 -0.000002 -0.000002 -0.000005 0.000004 0.000002 0.000000 -0.000009 0.000006 -0.000005 -0.039192 -0.011488 0.008390 0.000002 0.000002 -0.000002 -0.000004 0.000003 0.000000 -0.000000 0.000004 0.000002 0.000004 -0.000002 -0.000003 -0.043421 0.002443 0.002845 0.000004 0.000002 -0.000001 -0.000000 0.000009 0.000003 0.000002 -0.000003 0.000000 0.000001 0.000003 0.000003 -0.000000 0.000000 0.000000 -2.014036 -0.908199 9.296739 19.358583 0.813405 9.828540 2.044806 -1.403919 14.317832 0.000003 0.000002 0.000002 -0.000004 0.000004 0.000005 0.000002 0.000002 0.000002 -0.038000 -0.085200 0.016200 -0.000000 0.000003 0.000005 -0.000000 0.000000 0.000000 -2.001263 -0.905984 10.531125 21.449437 0.949960 13.702429 11.496451 -1.491089 15.226256 0.000000 0.000002 -0.000001 -0.000000 0.000002 -0.000001 0.000005 0.000003 0.000001 0.038000 -0.085200 0.016200 -0.000001 0.000001 -0.000000 
-0.010875 0.224269 0.002794 -50.574392 7.223014 103.600542 -0.000001 0.000001 0.000000 0.000000 -0.000001 0.000000 0.000000 0.000001 -0.000000 0.000001 0.000001 -0.000000 0.000924 0.155147 0.009274 -16.880493 0.051624 -16.788340 0.019937 0.078966 0.057518 -21.201804 1.101823 33.697817 0.177025 -0.020465 -0.095062 -15.106987 16.083615 -65.367868 151.989522 201.727178 -199.621486 -0.000003 -0.000002 -0.000002 0.021770 -0.038291 0.012954 0.000003 0.000003 -0.000004 0.000000 0.000003 0.000003 0.000000 -0.000000 0.000005 0.000001 0.000002 0.000002 -0.009090 -0.002348 -0.024223 -0.000003 0.000000 0.000003 0.000001 -0.000002 -0.000001 0.000000 0.000001 -0.000002 0.032823 -0.025104 0.012281 0.000002 0.000003 -0.000001 -0.000003 -0.000002 -0.000002 -0.000003 -0.000004 0.000003 -0.000003 0.000002 0.000004 0.039230 -0.011402 0.008390 0.000004 0.000003 0.000004 0.000002 0.000003 0.000001 -0.000002 0.000003 0.000004 -0.000000 0.000000 0.000003 0.043417 0.002450 0.002889 0.000003 0.000002 -0.000005 0.000001 -0.000004 -0.000004 0.000001 0.000004 0.000000 -0.000002 0.000000 -0.000002 -0.016662 0.078957 0.057696 -11.835538 3.218411 -29.734610 -0.176972 -0.020537 -0.095144 -39.835764 -9.397664 52.342342 -206.270101 -187.026507 -123.035285 -0.000002 0.000003 0.000002 -0.021773 -0.038278 0.012988 -0.000003 -0.000002 -0.000005 0.000001 0.000002 0.000002 -0.000001 0.000003 -0.000004 -0.000002 -0.000003 0.000003 0.009114 -0.002381 -0.024211 0.000001 -0.000002 0.000004 0.000005 -0.000002 0.000000 -0.000003 -0.000003 -0.000003 -0.032828 -0.025095 0.012286 -0.000002 -0.000000 -0.000006 0.000001 0.000002 0.000004 -0.000000 0.000003 0.000002 -0.000003 0.000005 -0.000004 -0.039192 -0.011488 0.008390 -0.000002 0.000002 -0.000004 0.000002 0.000006 0.000000 0.000002 -0.000000 0.000003 -0.000001 0.000000 0.000003 -0.043421 0.002443 0.002844 -0.000004 -0.000004 0.000002 -0.000004 0.000003 0.000001 -0.000005 -0.000003 0.000008 -0.000001 -0.000001 -0.000001 -0.000000 0.000000 0.000000 -2.030237 -0.651940 6.411316 23.050244 0.754042 8.834219 4.528111 -1.683797 17.254535 0.000003 -0.000000 0.000000 -0.000003 0.000004 0.000002 0.000000 -0.000002 0.000001 -0.038000 -0.085200 0.016200 0.000002 -0.000001 -0.000000 -0.000000 0.000000 0.000000 -2.008746 -0.649298 7.645747 24.574944 0.859642 12.710094 12.456944 -1.454013 14.838676 0.000000 -0.000003 -0.000001 -0.000000 0.000001 -0.000002 0.000002 -0.000003 0.000003 0.038000 -0.085200 0.016200 0.000001 -0.000003 -0.000001 
